<svg xmlns="http://www.w3.org/2000/svg" width="1200" height="630" viewBox="0 0 1200 630" role="img" aria-labelledby="title desc">
  <title id="title">Quinta Bellanova</title>
  <desc id="desc">Monograma QB con hoja. Eventos y estancia. Un lugar para celebrar y descansar.</desc>
  <rect width="1200" height="630" fill="#f8f6f0"/>
  <path d="M80 550h1040" stroke="#dce0d6" stroke-width="2"/>
  <defs>
    <linearGradient id="iconBg" x1="18" y1="10" x2="111" y2="122" gradientUnits="userSpaceOnUse">
      <stop stop-color="#102d26"/>
      <stop offset="1" stop-color="#245442"/>
    </linearGradient>
    <linearGradient id="iconGold" x1="30" y1="34" x2="104" y2="102" gradientUnits="userSpaceOnUse">
      <stop stop-color="#f0d7a6"/>
      <stop offset="1" stop-color="#c89c5d"/>
    </linearGradient>
  </defs>
  <g transform="translate(100 180) scale(2)">
    <rect width="128" height="128" rx="27" fill="url(#iconBg)"/>
    <g fill="url(#iconGold)">
      <path d="M55.8 36.2c-17.5 0-29.4 12.3-29.4 29.8 0 17.9 12.7 30.2 30.4 30.2 7.5 0 13.5-2.1 18.2-6.2l8.4 8.5h12.2L82 85c3.2-5.2 4.8-11.6 4.8-18.8 0-17.8-12.1-30-31-30Zm.3 10.8c11 0 18.4 7.7 18.4 19.2 0 3.6-.8 7-2.4 9.8L59.2 63.1H47l18.2 18.3c-2.6 2.5-5.5 3.7-8.8 3.7-10.4 0-17.7-7.8-17.7-19.1 0-11.2 7-19 17.4-19Z"/>
      <path d="M44.4 47.2c8.8-10.1 20.8-13.9 34.8-11.2-8.1 1.5-13.3 5.2-18.9 10.4-5.6 5.1-10.8 6.1-15.9.8Z"/>
      <path d="M83.4 37.4h15.2c12.9 0 20.9 6.6 20.9 16.7 0 6.7-3.7 11.5-9.7 13.7 7.5 1.9 12.1 7.2 12.1 15.1 0 11.3-8.6 17.7-22.7 17.7H83.4V37.4Zm11.7 10.1v15.9h3.5c5.8 0 9.1-2.8 9.1-8.1 0-5.1-3.2-7.8-9.1-7.8h-3.5Zm0 25.7v17.2h4.6c6.8 0 10.5-2.9 10.5-8.6 0-5.7-3.8-8.6-10.5-8.6h-4.6Z"/>
    </g>
  </g>
  <g fill="#183f35">
    <text x="423" y="203" font-family="Arial, sans-serif" font-size="16" letter-spacing="5">EVENTOS &amp; ESTANCIA</text>
    <text x="418" y="279" font-family="Georgia, serif" font-size="44">Quinta</text>
    <text x="414" y="370" font-family="Georgia, serif" font-size="90">Bellanova</text>
  </g>
  <text x="423" y="425" fill="#647169" font-family="Arial, sans-serif" font-size="23">Un lugar para celebrar y descansar.</text>
  <text x="80" y="591" fill="#647169" font-family="Arial, sans-serif" font-size="14" letter-spacing="3">ALBERCA · EVENTOS · HOSPEDAJE</text>
</svg>
